<?xml version="1.0" encoding="utf-8"?>
<!-- Generator: Adobe Illustrator 25.1.0, SVG Export Plug-In . SVG Version: 6.00 Build 0)  -->
<svg version="1.1" id="Layer_1" xmlns="http://www.w3.org/2000/svg" xmlns:xlink="http://www.w3.org/1999/xlink" x="0px" y="0px"
	 viewBox="0 0 20 20" style="enable-background:new 0 0 20 20;" xml:space="preserve">
<style type="text/css">
	.st0{fill:#FFFFFF;}
	.st1{clip-path:url(#SVGID_2_);fill:url(#SVGID_3_);}
	.st2{clip-path:url(#SVGID_5_);fill:url(#SVGID_6_);}
	.st3{fill:#FF8300;}
	.st4{clip-path:url(#SVGID_8_);fill:url(#SVGID_9_);}
	.st5{clip-path:url(#SVGID_11_);fill:url(#SVGID_12_);}
</style>
<g>
	<path class="st0" d="M5.5,13.6C3.8,15.3,0,16.4,0,16.4s0.5,2.1,3.1,1.6c0,0,0.6-0.1,1.1-0.4c0,0,2.2-2.2,2.1-3.4L5.5,13.6z"/>
	<g>
		<defs>
			<path id="SVGID_1_" d="M4.6,4.3C3.8,4.3,3.1,5.1,3.2,6C3.3,6.9,4.1,7.5,5,7.4c0.9-0.1,1.5-0.9,1.4-1.7C6.3,4.9,5.6,4.2,4.8,4.2
				C4.7,4.2,4.7,4.2,4.6,4.3"/>
		</defs>
		<clipPath id="SVGID_2_">
			<use xlink:href="#SVGID_1_"  style="overflow:visible;"/>
		</clipPath>
		
			<radialGradient id="SVGID_3_" cx="-398.4743" cy="312.1123" r="0.2417" gradientTransform="matrix(-26.7723 -4.0351 -4.0351 26.7723 -9405.3936 -9957.4023)" gradientUnits="userSpaceOnUse">
			<stop  offset="0" style="stop-color:#90D8F7"/>
			<stop  offset="4.219596e-02" style="stop-color:#7FC4EB"/>
			<stop  offset="0.1143" style="stop-color:#68A8D9"/>
			<stop  offset="0.1921" style="stop-color:#5692CC"/>
			<stop  offset="0.2775" style="stop-color:#4983C2"/>
			<stop  offset="0.3763" style="stop-color:#417ABD"/>
			<stop  offset="0.5191" style="stop-color:#3F77BB"/>
			<stop  offset="0.5893" style="stop-color:#3F77BB"/>
			<stop  offset="1" style="stop-color:#3F77BB"/>
		</radialGradient>
		<polygon class="st1" points="6.4,8 2.6,7.4 3.2,3.8 6.9,4.3 		"/>
	</g>
	<g>
		<defs>
			<path id="SVGID_4_" d="M1,8.1c5.8,3.9,4.2,7.4,3.4,8.8c-0.5,0.8-1,1-1,1c0.4-0.1,0.9-0.3,1.2-0.4C12.4,13.9,8.8,3,8.8,3
				C8.5,11.4,1,8.1,1,8.1"/>
		</defs>
		<clipPath id="SVGID_5_">
			<use xlink:href="#SVGID_4_"  style="overflow:visible;"/>
		</clipPath>
		
			<linearGradient id="SVGID_6_" gradientUnits="userSpaceOnUse" x1="-415.4461" y1="307.3214" x2="-415.2044" y2="307.3214" gradientTransform="matrix(45.6532 -3.5579 -3.5579 -45.6532 20061.0781 12562.9258)">
			<stop  offset="0" style="stop-color:#90D8F7"/>
			<stop  offset="4.219596e-02" style="stop-color:#7FC4EB"/>
			<stop  offset="0.1143" style="stop-color:#68A8D9"/>
			<stop  offset="0.1921" style="stop-color:#5692CC"/>
			<stop  offset="0.2775" style="stop-color:#4983C2"/>
			<stop  offset="0.3763" style="stop-color:#417ABD"/>
			<stop  offset="0.5191" style="stop-color:#3F77BB"/>
			<stop  offset="0.5893" style="stop-color:#3F77BB"/>
			<stop  offset="1" style="stop-color:#3F77BB"/>
		</linearGradient>
		<polygon class="st2" points="-0.2,3.1 12.3,2.1 13.6,17.8 1,18.8 		"/>
	</g>
	<path class="st3" d="M13.2,13.6c2.1,3.4,5.7,4.3,5.7,4.3s-3.1,1.9-5.3,0.2c0,0-0.4-0.3-0.8-0.8c0,0-1.3-1.6-0.7-2.7L13.2,13.6z"/>
	<g>
		<defs>
			<path id="SVGID_7_" d="M15.7,5.9c-0.5,0.8-0.2,1.8,0.6,2.2C17,8.6,18,8.4,18.4,7.6c0.5-0.8,0.2-1.8-0.6-2.2
				c-0.3-0.2-0.5-0.2-0.8-0.2C16.5,5.2,16,5.4,15.7,5.9"/>
		</defs>
		<clipPath id="SVGID_8_">
			<use xlink:href="#SVGID_7_"  style="overflow:visible;"/>
		</clipPath>
		
			<radialGradient id="SVGID_9_" cx="-394.3267" cy="310.9281" r="0.2417" gradientTransform="matrix(-23.4491 -0.3557 -0.3557 23.4491 -9117.8545 -7423.4771)" gradientUnits="userSpaceOnUse">
			<stop  offset="0" style="stop-color:#FFFFFF"/>
			<stop  offset="2.281797e-02" style="stop-color:#FEF0E7"/>
			<stop  offset="6.749755e-02" style="stop-color:#FBD6BE"/>
			<stop  offset="0.1177" style="stop-color:#F9BF98"/>
			<stop  offset="0.1723" style="stop-color:#F8AB78"/>
			<stop  offset="0.2326" style="stop-color:#F69A5C"/>
			<stop  offset="0.3008" style="stop-color:#F58C46"/>
			<stop  offset="0.3804" style="stop-color:#F48235"/>
			<stop  offset="0.4788" style="stop-color:#F37A2A"/>
			<stop  offset="0.6168" style="stop-color:#F37623"/>
			<stop  offset="1" style="stop-color:#F37521"/>
		</radialGradient>
		<polygon class="st4" points="18.9,8.7 15.2,8.6 15.2,5.1 18.9,5.2 		"/>
	</g>
	<g>
		<defs>
			<path id="SVGID_10_" d="M12.9,17.4c0.1,0.1,0.4,0.4,0.6,0.6c0,0-0.2-0.2-0.3-0.5c0-0.1-0.1-0.3-0.1-0.4C13,15.6,14.1,11,20,10.8
				c0,0-9.2-0.5-5.1-8.8C14.9,2.1,6.6,10.3,12.9,17.4"/>
		</defs>
		<clipPath id="SVGID_11_">
			<use xlink:href="#SVGID_10_"  style="overflow:visible;"/>
		</clipPath>
		
			<radialGradient id="SVGID_12_" cx="-410.7818" cy="306.2274" r="0.2417" gradientTransform="matrix(103.1259 89.5852 89.5852 -103.1259 14946.1768 68400.5234)" gradientUnits="userSpaceOnUse">
			<stop  offset="0" style="stop-color:#FFFFFF"/>
			<stop  offset="1.976383e-02" style="stop-color:#FEF6EC"/>
			<stop  offset="7.112688e-02" style="stop-color:#FDE1C1"/>
			<stop  offset="0.1282" style="stop-color:#FBCE9A"/>
			<stop  offset="0.1897" style="stop-color:#FABE78"/>
			<stop  offset="0.257" style="stop-color:#F8B05C"/>
			<stop  offset="0.332" style="stop-color:#F8A545"/>
			<stop  offset="0.4182" style="stop-color:#F79C34"/>
			<stop  offset="0.5225" style="stop-color:#F69627"/>
			<stop  offset="0.6632" style="stop-color:#F69320"/>
			<stop  offset="1" style="stop-color:#F6921E"/>
		</radialGradient>
		<polygon class="st5" points="12.4,-4.6 27.9,8.9 14.2,24.7 -1.3,11.2 		"/>
	</g>
</g>
</svg>
